<?xml version="1.0" standalone="no"?>
<!DOCTYPE svg PUBLIC "-//W3C//DTD SVG 20010904//EN"
 "http://www.w3.org/TR/2001/REC-SVG-20010904/DTD/svg10.dtd">
<svg version="1.0" xmlns="http://www.w3.org/2000/svg"
 width="512.000000pt" height="512.000000pt" viewBox="0 0 512.000000 512.000000"
 preserveAspectRatio="xMidYMid meet">
<g transform="translate(0.000000,512.000000) scale(0.100000,-0.100000)"
fill="#000000" stroke="none">
<path d="M1665 5102 c-65 -22 -109 -55 -146 -105 -59 -82 -59 -77 -59 -809 l0
-668 -77 0 c-94 0 -143 -20 -195 -78 -57 -63 -71 -132 -42 -215 14 -41 93
-125 647 -683 393 -396 646 -643 671 -657 52 -27 136 -28 188 -3 23 11 284
266 671 656 564 567 636 643 651 685 29 85 15 153 -42 217 -52 58 -101 78
-194 78 l-77 0 -3 688 c-3 674 -3 688 -24 733 -31 66 -78 114 -142 146 l-57
28 -860 2 c-796 2 -864 1 -910 -15z m1740 -194 c56 -26 55 -5 55 -788 0 -768
0 -764 47 -786 10 -5 76 -11 147 -14 73 -3 131 -9 132 -15 2 -5 -273 -289
-611 -630 l-615 -620 -614 620 c-339 341 -614 625 -612 630 1 6 59 12 132 15
71 3 137 9 147 14 47 22 47 18 47 788 1 775 -1 755 51 784 33 18 1654 20 1694
2z"/>
<path d="M2067 4476 c-211 -79 -274 -339 -120 -493 62 -62 124 -88 213 -87 91
0 149 23 210 84 184 184 65 493 -195 507 -44 2 -84 -2 -108 -11z m149 -204
c51 -41 57 -97 15 -144 -77 -86 -213 10 -157 111 27 49 102 66 142 33z"/>
<path d="M2846 4468 c-14 -13 -184 -297 -377 -633 -262 -454 -353 -618 -353
-642 0 -72 74 -121 138 -90 29 13 78 93 381 618 191 331 354 618 361 636 18
43 9 77 -28 108 -38 32 -88 33 -122 3z"/>
<path d="M2867 3676 c-211 -79 -274 -339 -120 -493 62 -62 124 -88 213 -87 91
0 149 23 210 84 184 184 65 493 -195 507 -44 2 -84 -2 -108 -11z m149 -204
c51 -41 57 -97 15 -144 -77 -86 -213 10 -157 111 27 49 102 66 142 33z"/>
<path d="M4705 1824 c-11 -3 -245 -66 -519 -140 -275 -74 -503 -131 -507 -127
-3 5 -12 26 -19 48 -30 92 -168 185 -277 185 -26 0 -255 -29 -510 -65 -521
-73 -581 -76 -921 -50 -172 14 -195 14 -222 0 -36 -19 -50 -43 -50 -87 0 -36
20 -72 49 -88 27 -14 382 -40 550 -40 124 0 211 9 608 65 255 36 475 65 489
65 55 0 114 -59 114 -114 0 -31 -61 -84 -142 -124 -177 -85 -583 -236 -801
-297 -45 -12 -62 -23 -78 -48 -36 -57 -4 -138 60 -152 67 -15 675 201 935 332
38 19 96 60 128 90 l58 56 552 149 c626 169 626 169 685 104 22 -24 33 -46 33
-66 0 -39 -24 -86 -51 -100 -11 -6 -172 -77 -357 -157 -1040 -449 -1400 -599
-1577 -656 -241 -79 -378 -90 -970 -81 l-440 7 -30 -26 c-20 -16 -54 -74 -94
-157 -48 -99 -70 -134 -88 -141 -40 -15 -1065 -12 -1086 4 -32 23 -30 75 7
218 121 471 321 766 631 930 100 53 113 64 121 104 7 37 -15 89 -45 105 -110
58 -458 -190 -630 -450 -116 -174 -206 -386 -274 -645 -39 -152 -43 -259 -10
-321 32 -61 70 -102 117 -127 41 -22 42 -22 626 -22 536 0 588 1 622 17 72 34
107 76 165 196 l55 115 396 -7 c575 -10 735 5 1008 97 164 56 499 193 1014
415 223 96 504 217 625 268 121 52 243 105 272 119 245 116 258 443 22 563
-54 28 -79 34 -145 37 -43 2 -88 2 -99 -1z"/>
<path d="M1278 1674 c-85 -46 -50 -184 46 -184 44 0 94 42 101 85 10 54 -46
116 -103 115 -9 -1 -29 -7 -44 -16z"/>
</g>
</svg>
