<?xml version="1.0" standalone="no"?>
<svg version="1.0" xmlns="http://www.w3.org/2000/svg"
 width="512.000000pt" height="512.000000pt" viewBox="0 0 512.000000 512.000000"
 preserveAspectRatio="xMidYMid meet">

<g transform="translate(0.000000,512.000000) scale(0.100000,-0.100000)"
fill="#000000" stroke="none">
<path d="M1685 3513 c-188 -19 -308 -59 -579 -195 -382 -191 -421 -204 -731
-244 -219 -28 -263 -41 -311 -96 -62 -71 -65 -92 -62 -418 3 -286 4 -297 27
-348 15 -32 44 -71 78 -102 58 -53 75 -60 340 -135 l131 -37 31 -63 c121 -245
413 -341 650 -215 60 32 166 130 177 162 5 17 54 18 1164 18 1110 0 1159 -1
1164 -18 11 -32 117 -130 177 -162 237 -126 530 -29 649 213 115 238 15 520
-227 634 -68 33 -88 38 -171 41 -161 7 -281 -42 -384 -157 -82 -91 -117 -188
-118 -323 l0 -78 -1090 0 -1090 0 0 78 c-1 135 -36 232 -118 323 -103 115
-223 164 -384 157 -83 -3 -103 -8 -172 -41 -139 -66 -237 -192 -266 -344 -7
-35 -13 -63 -14 -63 -1 0 -71 20 -155 44 -236 68 -245 78 -249 282 l-3 144 60
0 c49 0 64 4 81 22 22 24 26 58 10 88 -12 22 -61 40 -111 40 l-39 0 0 63 c0
108 14 116 240 142 248 29 356 56 503 123 l78 35 97 -95 c156 -153 217 -178
429 -178 120 0 135 2 153 20 25 25 26 71 1 101 -17 22 -28 24 -130 27 -74 3
-111 8 -111 16 0 17 76 345 81 350 2 2 38 12 79 21 54 12 146 18 333 22 l257
6 0 -206 0 -205 -135 -4 c-123 -3 -136 -5 -156 -25 -27 -27 -29 -75 -4 -103
18 -20 29 -20 899 -20 488 0 964 -5 1066 -10 315 -18 595 -62 810 -126 95 -28
250 -99 250 -114 0 -6 -27 -10 -60 -10 -68 0 -100 -21 -100 -66 0 -63 40 -84
161 -84 l79 0 0 -159 c0 -90 -5 -172 -11 -190 -11 -32 -52 -61 -87 -61 -10 0
-28 -10 -40 -23 -55 -59 0 -137 86 -121 80 15 131 54 173 134 23 43 24 53 24
271 l0 225 -38 76 c-25 51 -53 91 -85 119 -161 143 -663 259 -1217 282 l-70 2
-305 195 c-417 265 -474 294 -670 342 -79 19 -119 21 -545 23 -253 1 -478 1
-500 -2z m1045 -176 c52 -14 125 -38 161 -55 54 -24 351 -206 489 -299 l35
-23 -553 0 -552 0 0 198 c0 109 3 202 8 207 4 4 77 5 162 2 117 -5 178 -12
250 -30z m-1439 -202 c-14 -63 -30 -115 -36 -115 -5 0 -40 30 -77 67 l-68 68
92 47 c51 26 98 47 104 47 7 1 2 -40 -15 -114z m-113 -766 c122 -61 187 -173
180 -309 -16 -272 -334 -402 -541 -221 -20 18 -51 63 -69 99 -28 57 -33 77
-33 142 0 65 5 85 33 142 58 118 155 177 293 178 65 0 84 -4 137 -31z m3102
12 c78 -30 134 -81 172 -159 28 -57 33 -77 33 -142 0 -65 -5 -85 -33 -142 -18
-36 -49 -81 -69 -99 -127 -111 -311 -112 -433 -2 -71 64 -102 129 -108 223 -7
136 58 248 180 309 52 26 73 31 134 31 49 0 91 -7 124 -19z"/>
<path d="M989 2133 c-67 -65 -79 -81 -79 -110 0 -42 30 -73 72 -73 26 0 45 13
110 78 87 87 96 115 53 157 -42 43 -68 34 -156 -52z"/>
<path d="M4055 2185 c-43 -42 -34 -70 53 -157 65 -65 84 -78 110 -78 42 0 72
31 72 73 0 29 -12 45 -79 110 -88 86 -114 95 -156 52z"/>
<path d="M1705 2290 c-25 -28 -23 -76 4 -103 l22 -22 870 0 871 0 25 29 c27
31 25 66 -4 99 -15 16 -71 17 -893 17 -866 0 -877 0 -895 -20z"/>
</g>
</svg>
