<?xml version="1.0" standalone="no"?>
<!DOCTYPE svg PUBLIC "-//W3C//DTD SVG 20010904//EN"
 "http://www.w3.org/TR/2001/REC-SVG-20010904/DTD/svg10.dtd">
<svg version="1.0" xmlns="http://www.w3.org/2000/svg"
 width="512.000000pt" height="512.000000pt" viewBox="0 0 512.000000 512.000000"
 preserveAspectRatio="xMidYMid meet">

<g transform="translate(0.000000,512.000000) scale(0.100000,-0.100000)"
fill="#000000" stroke="none">
<path d="M2501 4933 c-16 -16 -172 -188 -347 -383 -175 -195 -335 -374 -356
-397 -46 -51 -50 -92 -13 -128 24 -25 27 -25 200 -25 l175 0 0 -200 0 -200 80
0 80 0 0 255 0 256 -25 24 c-23 24 -30 25 -150 25 l-126 0 266 295 c147 162
270 295 275 295 5 0 128 -133 275 -295 l266 -295 -126 0 c-120 0 -127 -1 -150
-25 l-25 -24 0 -256 0 -255 80 0 80 0 0 200 0 200 175 0 c173 0 176 0 200 25
37 36 33 77 -13 128 -21 23 -181 202 -356 397 -175 195 -331 367 -347 383 -19
17 -40 27 -59 27 -19 0 -40 -10 -59 -27z"/>
<path d="M703 3723 c-170 -152 -359 -322 -421 -377 -114 -102 -132 -130 -116
-172 5 -13 90 -97 189 -186 99 -88 287 -257 418 -375 259 -233 271 -240 322
-188 25 24 25 27 25 200 l0 175 135 0 c131 0 137 -1 160 -25 24 -23 25 -29 25
-160 l0 -135 80 0 80 0 0 136 c0 170 -9 204 -75 269 -68 69 -94 75 -324 75
-190 0 -192 0 -216 -25 -24 -23 -25 -30 -25 -150 l0 -126 -295 266 c-162 147
-295 270 -295 275 0 5 133 128 295 275 l295 266 0 -126 c0 -120 1 -127 25
-150 l24 -25 243 0 c270 0 317 -7 419 -61 115 -62 214 -197 239 -328 5 -30 10
-98 10 -152 l0 -99 81 0 82 0 -5 143 c-4 106 -11 158 -26 207 -52 159 -176
305 -322 378 -120 60 -188 72 -417 72 l-193 0 0 175 c0 173 0 176 -25 200 -52
53 -57 50 -392 -252z"/>
<path d="M4025 3975 c-25 -24 -25 -27 -25 -200 l0 -175 -192 0 c-229 0 -296
-12 -417 -72 -166 -82 -299 -253 -336 -433 -8 -38 -15 -121 -15 -182 l0 -113
80 0 80 0 0 108 c0 173 38 279 137 383 29 31 80 71 112 88 102 54 149 61 417
61 308 0 287 -12 294 168 l5 129 297 -269 298 -269 -298 -267 -297 -268 -5
129 c-7 176 6 167 -242 167 -229 0 -255 -6 -323 -75 -66 -65 -75 -99 -75 -269
l0 -136 80 0 80 0 0 135 c0 131 1 137 25 160 23 24 29 25 160 25 l135 0 0
-175 c0 -173 0 -176 25 -200 45 -46 73 -36 188 68 528 471 739 665 743 685 4
12 4 32 0 45 -4 19 -215 213 -743 685 -115 103 -143 113 -188 67z"/>
<path d="M2411 3503 c-26 -9 -65 -36 -92 -63 -72 -72 -79 -107 -79 -374 0
-193 4 -244 21 -304 3 -8 -76 -47 -231 -113 -129 -56 -241 -107 -248 -114 -13
-12 -181 -660 -182 -700 0 -23 177 -292 201 -306 10 -5 26 -9 36 -9 16 0 23
-23 51 -167 l33 -168 -21 -435 c-26 -558 -26 -535 5 -565 24 -25 25 -25 232
-25 163 0 213 3 228 14 11 8 58 91 105 185 46 94 87 171 90 171 3 0 44 -77 90
-171 47 -94 94 -177 105 -185 15 -11 65 -14 228 -14 207 0 208 0 232 25 31 30
31 7 5 565 l-21 435 33 168 c28 144 35 167 51 167 10 0 27 5 38 10 20 11 199
357 199 385 0 30 -170 609 -182 621 -7 7 -119 58 -248 113 -148 64 -234 106
-231 114 17 56 21 111 21 310 0 127 -4 236 -10 246 -14 26 -248 177 -295 190
-54 15 -111 13 -164 -6z m216 -204 c62 -41 93 -68 93 -80 0 -18 -10 -19 -160
-19 l-160 0 0 46 c0 39 5 51 34 80 51 51 81 47 193 -27z m91 -368 c-3 -118
-12 -141 -72 -185 -39 -29 -133 -29 -172 0 -60 44 -69 67 -72 185 l-4 109 162
0 162 0 -4 -109z m-296 -338 c45 -24 65 -27 138 -27 73 0 92 4 138 27 l52 27
232 -99 232 -99 70 -247 70 -246 -62 -124 -62 -125 -165 0 -165 0 -85 42 c-47
23 -85 45 -85 49 0 3 66 50 147 104 l147 98 66 -22 c37 -11 71 -21 76 -21 8 0
54 121 54 142 0 4 -22 14 -50 23 l-50 17 0 119 c0 114 -1 121 -25 144 -22 23
-31 25 -127 25 -102 0 -105 -1 -242 -55 l-138 -56 -167 56 c-158 52 -171 55
-269 55 -96 0 -105 -2 -127 -25 -25 -24 -25 -26 -25 -215 0 -189 0 -191 25
-215 13 -14 35 -25 47 -25 13 0 136 45 273 100 137 55 253 100 257 100 8 0 88
-153 88 -168 0 -5 -89 -68 -198 -141 l-197 -131 -206 0 -206 0 -58 87 -58 88
69 278 c38 153 71 282 74 286 4 4 445 199 457 201 1 0 25 -12 55 -27z m-133
-374 c34 -12 61 -23 59 -24 -3 -3 -180 -75 -185 -75 -2 0 -3 27 -3 60 l0 60
33 0 c18 0 61 -9 96 -21z m671 -38 c0 -64 9 -53 -102 -125 l-27 -18 -36 72
c-20 40 -35 73 -33 75 15 14 131 53 161 54 l37 1 0 -59z m21 -661 l122 0 -6
-27 c-3 -16 -13 -70 -23 -120 l-18 -93 -496 0 -496 0 -18 93 c-10 50 -20 104
-23 120 l-5 27 163 0 164 0 110 74 110 73 147 -73 148 -74 121 0z m63 -432 c3
-18 10 -161 16 -318 5 -157 13 -322 16 -367 l6 -83 -116 0 -116 0 -117 233
c-127 251 -138 263 -200 241 -24 -8 -46 -45 -146 -242 l-117 -232 -116 0 -116
0 6 82 c3 46 11 211 16 368 6 157 13 300 16 318 l5 32 479 0 479 0 5 -32z"/>
</g>
</svg>
