<?xml version="1.0" standalone="no"?>
<!DOCTYPE svg PUBLIC "-//W3C//DTD SVG 20010904//EN"
 "http://www.w3.org/TR/2001/REC-SVG-20010904/DTD/svg10.dtd">
<svg version="1.0" xmlns="http://www.w3.org/2000/svg"
 width="512.000000pt" height="512.000000pt" viewBox="0 0 512.000000 512.000000"
 preserveAspectRatio="xMidYMid meet">

<g transform="translate(0.000000,512.000000) scale(0.100000,-0.100000)"
fill="#000000" stroke="none">
<path d="M1276 3672 l-1270 -1017 347 -3 347 -2 2 -1113 3 -1112 598 -3 597
-2 0 745 0 745 660 0 660 0 0 -745 0 -745 598 2 597 3 3 1112 2 1113 347 2
347 3 -477 380 -476 380 0 518 -1 517 -280 0 -280 0 -2 -291 -3 -291 -512 411
c-282 226 -518 411 -525 410 -7 0 -584 -458 -1282 -1017z"/>
</g>
</svg>
