<?xml version="1.0" standalone="no"?>
<!DOCTYPE svg PUBLIC "-//W3C//DTD SVG 20010904//EN"
 "http://www.w3.org/TR/2001/REC-SVG-20010904/DTD/svg10.dtd">
<svg version="1.0" xmlns="http://www.w3.org/2000/svg"
 width="512.000000pt" height="512.000000pt" viewBox="0 0 512.000000 512.000000"
 preserveAspectRatio="xMidYMid meet">

<g transform="translate(0.000000,512.000000) scale(0.100000,-0.100000)"
fill="#000000" stroke="none">
<path d="M4019 5105 c-108 -20 -226 -64 -321 -121 -100 -59 -235 -190 -300
-289 -135 -205 -184 -470 -129 -685 74 -286 319 -743 673 -1258 183 -266 188
-272 237 -272 47 1 55 8 132 115 229 317 476 716 615 995 177 355 220 547 175
766 -42 201 -117 342 -260 485 -142 142 -285 219 -481 259 -113 23 -230 24
-341 5z m356 -181 c222 -60 411 -220 505 -428 48 -105 64 -180 64 -301 0 -97
-4 -121 -33 -208 -83 -252 -278 -611 -568 -1042 -151 -226 -161 -240 -167
-234 -2 2 -68 101 -148 219 -355 530 -570 950 -607 1188 -19 117 11 275 74
404 107 216 319 375 558 418 71 12 249 4 322 -16z"/>
<path d="M4050 4676 c-80 -23 -166 -73 -227 -134 -240 -241 -189 -627 106
-802 285 -169 660 -10 747 315 16 59 18 182 3 244 -39 172 -208 341 -380 380
-59 14 -194 12 -249 -3z m224 -168 c67 -18 146 -76 187 -137 142 -212 10 -497
-243 -527 -211 -25 -399 163 -374 374 25 209 226 345 430 290z"/>
<path d="M839 2809 c-344 -33 -659 -279 -779 -608 -83 -227 -76 -420 27 -681
116 -297 450 -861 749 -1266 91 -124 125 -115 252 64 457 647 739 1183 781
1486 11 79 2 215 -20 301 -117 452 -542 749 -1010 704z m326 -199 c287 -88
500 -345 535 -646 18 -161 -20 -296 -165 -589 -51 -104 -139 -266 -195 -360
-113 -189 -389 -605 -401 -605 -12 0 -312 453 -413 623 -226 381 -356 693
-356 852 0 228 129 477 315 611 198 141 452 183 680 114z"/>
<path d="M829 2377 c-178 -41 -330 -186 -383 -366 -20 -69 -21 -189 -1 -266
42 -160 182 -305 344 -355 79 -25 215 -27 291 -4 171 51 309 196 355 371 65
249 -87 519 -340 607 -66 22 -196 29 -266 13z m250 -193 c261 -119 264 -482 5
-614 -42 -21 -62 -25 -144 -25 -85 0 -101 3 -154 30 -65 33 -124 94 -157 163
-33 68 -37 180 -10 254 72 188 279 275 460 192z"/>
<path d="M3408 2475 c-133 -33 -253 -99 -356 -199 -73 -69 -106 -115 -153
-206 -71 -141 -71 -138 -80 -635 -4 -252 -12 -472 -18 -500 -88 -403 -395
-694 -798 -754 -42 -7 -241 -11 -482 -11 l-411 0 0 -85 0 -85 418 0 c442 0
537 7 674 50 292 90 532 297 668 573 103 210 120 329 120 842 0 268 4 354 15
404 48 203 226 382 431 435 107 28 204 21 474 -33 135 -27 248 -46 252 -43 6
6 39 155 35 159 -1 1 -117 24 -258 52 -281 56 -412 64 -531 36z"/>
</g>
</svg>
