<?xml version="1.0" standalone="no"?>
<!DOCTYPE svg PUBLIC "-//W3C//DTD SVG 20010904//EN"
 "http://www.w3.org/TR/2001/REC-SVG-20010904/DTD/svg10.dtd">
<svg version="1.0" xmlns="http://www.w3.org/2000/svg"
 width="512.000000pt" height="512.000000pt" viewBox="0 0 512.000000 512.000000"
 preserveAspectRatio="xMidYMid meet">

<g transform="translate(0.000000,512.000000) scale(0.100000,-0.100000)"
fill="#000000" stroke="none">
<path d="M2509 5105 c-27 -15 -56 -73 -109 -222 l-22 -61 -117 -6 c-64 -4
-130 -9 -148 -12 -58 -9 -99 -82 -77 -139 5 -13 171 -155 217 -186 6 -4 -6
-64 -28 -147 l-38 -140 20 -34 c24 -41 58 -60 99 -54 17 2 79 36 138 75 60 39
112 71 116 71 4 0 56 -32 116 -71 59 -39 121 -73 138 -75 41 -6 75 13 99 54
l20 34 -38 140 c-22 83 -34 143 -28 147 46 31 212 173 217 186 14 36 5 75 -22
106 -28 31 -33 33 -133 40 -57 4 -123 8 -145 8 l-41 1 -23 63 c-55 154 -82
207 -111 222 -35 19 -66 18 -100 0z m80 -329 c33 -94 55 -110 152 -115 44 -2
79 -7 77 -11 -2 -4 -29 -29 -60 -54 -34 -28 -61 -58 -65 -74 -4 -16 2 -58 13
-104 11 -43 19 -78 17 -78 -2 0 -32 19 -65 41 -44 30 -71 42 -98 42 -27 0 -54
-12 -98 -42 -33 -22 -63 -41 -65 -41 -2 0 6 35 17 78 12 46 17 88 13 104 -5
17 -32 47 -73 80 l-66 53 85 5 c104 7 125 22 158 116 13 35 26 64 29 64 3 0
16 -29 29 -64z"/>
<path d="M1377 4889 c-22 -13 -44 -58 -91 -185 l-37 -101 -134 -6 c-146 -7
-183 -18 -203 -62 -29 -64 -14 -89 123 -200 52 -43 95 -83 95 -89 0 -6 -14
-60 -30 -121 -16 -60 -30 -126 -30 -146 0 -62 69 -110 125 -89 12 5 70 40 130
78 l108 70 114 -75 c127 -83 163 -92 210 -56 48 35 49 65 9 213 -20 73 -33
136 -29 140 4 3 46 37 93 75 119 95 130 109 130 156 0 55 -42 98 -97 100 -21
1 -85 4 -142 8 l-105 6 -48 125 c-54 141 -77 170 -136 170 -20 0 -45 -5 -55
-11z m131 -414 c18 -18 38 -25 90 -30 37 -3 75 -7 84 -8 11 -1 -4 -19 -47 -54
-86 -70 -88 -79 -38 -247 4 -15 -2 -13 -38 11 -63 43 -105 63 -132 63 -13 0
-52 -18 -87 -41 -34 -22 -64 -38 -67 -35 -3 2 2 29 11 59 30 103 21 132 -64
199 l-54 43 79 8 c98 9 122 25 150 98 12 30 25 63 29 74 7 16 13 8 34 -48 15
-38 37 -79 50 -92z"/>
<path d="M3625 4878 c-16 -15 -42 -68 -73 -148 l-48 -125 -105 -6 c-57 -4
-121 -7 -142 -8 -70 -2 -117 -77 -91 -145 5 -12 121 -112 212 -181 11 -9 6
-35 -24 -144 -40 -149 -39 -179 9 -214 47 -36 83 -27 210 56 l114 75 118 -76
c135 -87 166 -94 216 -46 38 36 37 67 -1 209 -16 61 -30 115 -30 121 0 7 33
38 73 69 153 123 178 161 141 223 -26 44 -53 52 -200 59 l-133 6 -37 101 c-66
179 -79 196 -148 196 -22 0 -44 -8 -61 -22z m95 -325 c33 -86 54 -101 154
-110 l79 -6 -29 -24 c-89 -75 -104 -93 -104 -129 0 -20 7 -61 16 -91 9 -30 14
-57 11 -59 -3 -3 -33 13 -67 35 -35 23 -74 41 -87 41 -27 0 -69 -20 -132 -63
-36 -24 -42 -26 -38 -11 50 168 48 177 -38 247 -43 35 -58 53 -47 54 9 1 47 5
84 8 82 8 107 29 139 120 12 36 25 62 28 59 3 -3 17 -35 31 -71z"/>
<path d="M2427 4020 c-117 -37 -211 -120 -262 -231 -70 -154 -51 -314 55 -453
l47 -63 -56 -28 c-77 -37 -167 -103 -222 -161 l-45 -49 -60 48 c-32 27 -76 57
-96 68 -21 11 -38 22 -38 25 0 3 11 20 24 37 69 91 83 234 33 343 -34 73 -92
132 -167 171 -48 25 -66 28 -145 28 -77 0 -98 -4 -147 -27 -121 -56 -188 -158
-196 -295 -5 -93 9 -147 56 -216 l30 -43 -51 -29 c-29 -16 -85 -61 -124 -100
-56 -56 -82 -92 -113 -156 -54 -114 -60 -161 -27 -232 18 -40 37 -63 68 -84
l43 -28 373 -3 373 -3 0 -62 c1 -108 57 -197 155 -243 l50 -24 575 0 575 0 50
24 c98 46 154 135 155 243 l0 62 373 3 373 3 43 28 c31 21 50 44 68 84 33 72
27 119 -28 233 -48 98 -149 207 -236 255 l-51 29 30 43 c47 69 61 123 56 216
-8 137 -75 239 -196 295 -76 36 -211 38 -285 4 -70 -32 -140 -102 -173 -175
-51 -110 -38 -252 33 -345 14 -18 23 -35 22 -37 -2 -2 -38 -26 -79 -53 -42
-28 -84 -59 -93 -70 -18 -20 -19 -19 -65 30 -56 60 -145 125 -223 163 l-56 28
47 63 c130 171 127 388 -6 551 -106 129 -303 186 -467 133z m248 -164 c56 -26
116 -87 141 -143 9 -22 17 -66 17 -103 4 -293 -386 -387 -520 -126 -22 41 -27
64 -26 121 0 82 18 128 71 187 52 58 121 88 202 88 47 0 79 -7 115 -24z
m-1097 -277 c64 -32 97 -86 97 -164 0 -50 -5 -69 -28 -103 -62 -95 -199 -111
-280 -34 -42 39 -57 75 -57 132 0 83 31 134 105 173 42 23 111 21 163 -4z
m2130 2 c72 -37 102 -87 102 -172 0 -56 -15 -92 -57 -131 -81 -77 -218 -61
-280 34 -39 59 -40 147 -1 205 50 75 157 104 236 64z m-958 -444 c111 -37 167
-72 250 -156 84 -84 138 -175 164 -277 19 -73 21 -241 4 -279 -25 -55 -21 -55
-608 -55 -587 0 -583 0 -608 55 -17 37 -15 206 4 278 48 185 193 348 374 421
130 52 289 57 420 13z m-1186 -77 c82 -13 171 -58 235 -117 l55 -50 -22 -54
c-11 -30 -26 -73 -32 -96 l-11 -43 -353 0 c-398 0 -388 -2 -366 67 46 141 187
263 335 291 68 13 90 13 159 2z m2142 -1 c157 -29 297 -147 344 -292 22 -69
32 -67 -365 -67 l-352 0 -32 98 -32 97 53 49 c79 74 190 120 299 125 14 0 52
-4 85 -10z"/>
<path d="M1838 2100 c-129 -23 -205 -60 -640 -312 -180 -104 -332 -187 -338
-183 -6 3 -22 29 -36 56 -56 111 -137 166 -232 157 -39 -4 -84 -25 -208 -95
-140 -79 -162 -95 -188 -136 -41 -67 -45 -130 -13 -199 47 -101 727 -1293 754
-1322 62 -66 153 -82 238 -42 96 44 270 148 303 179 40 39 67 122 57 175 -4
21 -24 69 -46 109 l-40 72 71 42 72 42 566 -151 c312 -84 587 -156 612 -162
116 -25 277 -3 395 54 112 54 1656 1009 1699 1051 86 84 116 224 77 355 -19
62 -31 82 -80 131 -48 47 -69 61 -125 78 -128 40 -271 19 -442 -63 -50 -24
-297 -164 -550 -311 -438 -256 -563 -322 -551 -293 61 144 42 279 -51 380 -56
60 -109 84 -276 123 -138 32 -317 89 -662 209 -172 60 -266 75 -366 56z m452
-255 c252 -89 490 -159 623 -185 129 -25 190 -136 136 -246 -23 -49 -82 -84
-140 -84 -42 0 -172 31 -432 104 -211 59 -229 60 -261 14 -22 -31 -20 -62 7
-92 18 -20 68 -37 262 -90 318 -87 408 -106 545 -112 133 -7 214 8 311 55 32
17 269 152 526 302 455 265 536 307 638 335 115 31 223 7 265 -61 44 -72 33
-192 -23 -242 -25 -23 -1580 -979 -1645 -1012 -23 -12 -70 -29 -105 -37 -105
-27 -174 -16 -582 94 -203 54 -477 128 -607 162 l-237 63 -98 -55 c-54 -31
-102 -52 -107 -48 -9 9 -426 744 -423 746 68 47 745 427 796 447 171 67 206
63 551 -58z m-1550 -360 c53 -93 219 -387 369 -652 189 -333 271 -488 267
-501 -7 -21 -267 -172 -297 -172 -10 0 -25 10 -33 22 -8 13 -175 306 -371 653
-211 374 -355 638 -353 650 4 27 262 177 298 173 20 -3 40 -31 120 -173z"/>
<path d="M537 1459 c-24 -14 -49 -73 -40 -96 13 -38 46 -63 82 -63 40 1 62 14
79 47 19 35 14 63 -17 94 -31 31 -71 37 -104 18z"/>
</g>
</svg>
